<svg id="logo" xmlns="http://www.w3.org/2000/svg" width="214.81" height="100.49" viewBox="0 0 214.81 100.49"><defs><style>.cls-1,.cls-3,.cls-7{fill:#e5313d;}.cls-2{fill:#aa2121;}.cls-3{stroke:#fff;stroke-miterlimit:10;stroke-width:0.75px;}.cls-4{font-size:53.3px;}.cls-4,.cls-6{fill:#fff;}.cls-4,.cls-7{font-family:OratorStd, Orator Std;}.cls-5{font-size:41.45px;}.cls-7{font-size:32.53px;}</style></defs><title>logo</title><g id="pixal"><g id="P"><rect class="cls-1" x="73.41" y="20.58" width="5.32" height="4.63"/><rect class="cls-1" x="78.74" y="25.21" width="5.32" height="4.63"/><rect class="cls-1" x="73.41" y="29.83" width="5.32" height="4.63"/><rect class="cls-1" x="69.23" y="20.58" width="4.35" height="23.81"/></g><rect id="I" class="cls-1" x="87.55" y="25.89" width="4.35" height="19.19"/><g id="X"><rect class="cls-1" x="101.64" y="33.61" width="5.32" height="4.63"/><rect class="cls-1" x="96.31" y="38.24" width="5.32" height="6.94"/><rect class="cls-1" x="106.92" y="38.24" width="5.32" height="6.94"/><rect class="cls-1" x="96.33" y="26.47" width="5.32" height="6.94"/><rect class="cls-1" x="106.94" y="26.47" width="5.32" height="6.94"/></g><g id="A"><rect class="cls-1" x="116.04" y="32.15" width="3.88" height="13.03"/><rect class="cls-1" x="119.92" y="27.52" width="5.32" height="4.63"/><rect class="cls-1" x="125.24" y="32.05" width="3.76" height="13.03"/><rect class="cls-1" x="119.92" y="35.92" width="5.32" height="4.63"/></g><g id="L"><rect class="cls-1" x="132.48" y="25.89" width="4.35" height="19.19"/><rect class="cls-1" x="136.83" y="40.45" width="5.32" height="4.63"/></g></g><circle id="bottem_dark_red_circle" data-name="bottem dark red circle" class="cls-2" cx="33.62" cy="33.62" r="33.62"/><circle id="top_bright_red_circle" data-name="top bright red circle" class="cls-3" cx="35.01" cy="33.62" r="32.11"/><text class="cls-4" transform="translate(29.08 62.87)">P<tspan class="cls-5" x="31.98" y="0"> </tspan></text><g id="pixal_P" data-name="pixal P"><rect id="small_pix_3" data-name="small pix 3" class="cls-6" x="29.68" y="12.61" width="6.99" height="6.86"/><rect id="small_pix_2" data-name="small pix 2" class="cls-6" x="36.67" y="19.48" width="6.99" height="6.86"/><rect id="small_pixal" data-name="small pixal" class="cls-6" x="29.68" y="26.34" width="6.99" height="6.86"/><rect id="long_part_P" data-name="long part P" class="cls-6" x="24.18" y="12.61" width="5.71" height="35.33"/></g><text class="cls-7" transform="translate(64.17 72.76)">PERFECT</text></svg>