<svg id="nes" xmlns="http://www.w3.org/2000/svg" width="192.47" height="86.02" viewBox="0 0 192.47 86.02"><defs><style>.cls-1{fill:#d8bda7;stroke:#dbbfa7;}.cls-1,.cls-2{stroke-miterlimit:10;}.cls-2{fill:#35312e;stroke:#d3b9a5;}.cls-3{fill:#93867c;}.cls-4{fill:#e2c7b5;}.cls-5{fill:#d3bdaf;}.cls-6{fill:#1e1d1d;}.cls-7,.cls-8{fill:#f72828;}.cls-8{font-size:5.28px;font-family:MyriadPro-Regular, Myriad Pro;}.cls-9{letter-spacing:0.03em;}.cls-10{letter-spacing:-0.07em;}.cls-11{letter-spacing:0.01em;}</style></defs><title>NES controller</title><g id="controller"><rect id="Gray_base" data-name="Gray base" class="cls-1" x="0.53" y="0.57" width="191.41" height="84.89" rx="1" ry="1"/><rect id="black_base" data-name="black base" class="cls-2" x="2.18" y="8.66" width="186.79" height="75.14"/><rect id="top_gray_small_rectagle" data-name="top gray small rectagle" class="cls-3" x="53.36" y="10.31" width="82.41" height="7.27" rx="0.31" ry="0.31"/><rect id="mid_gray_rect" data-name="mid gray rect" class="cls-3" x="53.37" y="20.77" width="82.41" height="7.05" rx="0.3" ry="0.3"/><rect id="gray_rect_with_text" data-name="gray rect with text" class="cls-3" x="53.37" y="30.35" width="82.41" height="6.99" rx="0.3" ry="0.3"/><rect id="Dpad_up_down" data-name="Dpad up down" class="cls-4" x="21.84" y="33.21" width="15.36" height="31.6"/><rect id="Dpad_left_right" data-name="Dpad left right" class="cls-4" x="25.6" y="55.19" width="15.36" height="31.6" transform="translate(100.49 15.67) rotate(89.96)"/><rect id="middle_bigger_rect" data-name="middle bigger rect" class="cls-4" x="54.19" y="47.22" width="81.59" height="18.83" rx="0.81" ry="0.81"/><rect id="very_bottemgray_rect" data-name="very bottemgray rect" class="cls-3" x="53.57" y="74.72" width="85.38" height="7.05" rx="0.3" ry="0.3"/><rect id="gray_squareleft_button" data-name="gray squareleft button" class="cls-4" x="141.69" y="44.95" width="19.16" height="17.01"/><rect id="sading_behind_buttons_in_mid" data-name="sading behind buttons in mid" class="cls-5" x="57.68" y="48.59" width="73.49" height="15.69" rx="0.67" ry="0.67"/><rect id="gray_behind_right_red_button" data-name="gray behind right red button" class="cls-4" x="164.97" y="44.94" width="19.16" height="17.01"/><rect id="left_black_button_long" data-name="left black button long" class="cls-6" x="63.57" y="53.52" width="21.14" height="5.86" rx="0.25" ry="0.25"/><rect id="riight_long_black_mid_button" data-name="riight long black mid button" class="cls-6" x="104.97" y="53.49" width="21.14" height="5.86" rx="0.25" ry="0.25"/><rect id="rect_Dpad_mid_up_down" data-name="rect Dpad mid up down" class="cls-6" x="23.82" y="35.13" width="11.4" height="28.24"/><rect id="black_dpad_left_rightrect" data-name="black dpad left rightrect" class="cls-6" x="27.59" y="57.12" width="11.4" height="28.24" transform="translate(100.74 15.92) rotate(89.96)"/><circle id="left_red_button" data-name="left red button" class="cls-7" cx="151.27" cy="53.46" r="6.08"/><circle id="right_red_button" data-name="right red button" class="cls-7" cx="174.55" cy="53.44" r="6.08"/><text class="cls-8" transform="translate(60.08 36.31) rotate(-0.04) scale(1.82 1)">SELE<tspan class="cls-9" x="10.29" y="0">C</tspan><tspan x="13.5" y="0" xml:space="preserve">T     S</tspan><tspan class="cls-10" x="24.33" y="0">T</tspan><tspan x="26.56" y="0">A</tspan><tspan class="cls-11" x="29.79" y="0">R</tspan><tspan x="32.67" y="0">T</tspan></text><text class="cls-8" transform="translate(60.08 36.31) rotate(-0.04) scale(1.82 1)">SELE<tspan class="cls-9" x="10.29" y="0">C</tspan><tspan x="13.5" y="0" xml:space="preserve">T     S</tspan><tspan class="cls-10" x="24.33" y="0">T</tspan><tspan x="26.56" y="0">A</tspan><tspan class="cls-11" x="29.79" y="0">R</tspan><tspan x="32.67" y="0">T</tspan></text></g></svg>