<svg id="Layer_1" data-name="Layer 1" xmlns="http://www.w3.org/2000/svg" viewBox="0 0 182.99 92.3"><defs><style>.cls-1,.cls-4{fill:#e5323e;}.cls-1{stroke:#433f3f;}.cls-1,.cls-2,.cls-6{stroke-miterlimit:10;}.cls-1,.cls-2{stroke-width:5px;}.cls-2{fill:#433f3f;stroke:#e5323e;}.cls-3{isolation:isolate;}.cls-5{fill:#010101;}.cls-6{fill:none;stroke:#010101;stroke-width:0.5px;}</style></defs><title>pixelPerfectLogo</title><g id="logo_2" data-name="logo 2"><path id="button" class="cls-1" d="M50.15,11.7h0A42.15,42.15,0,0,0,8,53.85H8A42.15,42.15,0,0,0,50.15,96h0A42.15,42.15,0,0,0,92.3,53.85h0A42.15,42.15,0,0,0,50.15,11.7Z" transform="translate(-0.5 -6.2)"/><path id="button-2" data-name="button" class="cls-2" d="M45.15,8.7h0A42.15,42.15,0,0,0,3,50.85H3A42.15,42.15,0,0,0,45.15,93h0A42.15,42.15,0,0,0,87.3,50.85h0A42.15,42.15,0,0,0,45.15,8.7Z" transform="translate(-0.5 -6.2)"/><g class="cls-3"><path class="cls-4" d="M57.23,75.71V82H37.54V75.71H42.3V51H37.54V44.67H57.23q6.87,0,10.62,3.22a10.85,10.85,0,0,1,3.75,8.67,12,12,0,0,1-1.32,5.65,10.06,10.06,0,0,1-3.37,3.9A12.75,12.75,0,0,1,62.21,68a36.81,36.81,0,0,1-6.62.5H52v7.25ZM52,62.23h1.45q5,0,6.43-1.63a5.86,5.86,0,0,0,1.44-4,6,6,0,0,0-1-3.48,4.13,4.13,0,0,0-2.28-1.77A19,19,0,0,0,53.84,51H52Z" transform="translate(-0.5 -6.2)"/></g><g class="cls-3"><path class="cls-5" d="M50.6,31a13.17,13.17,0,0,1,.3,3,13.82,13.82,0,0,1-.3,3h-3a13.17,13.17,0,0,1,.3,3,13.82,13.82,0,0,1-.3,3h-15a13.17,13.17,0,0,1,.3,3,13.82,13.82,0,0,1-.3,3,13.17,13.17,0,0,1,.3,3,13.82,13.82,0,0,1-.3,3,13.17,13.17,0,0,1,.3,3,13.82,13.82,0,0,1-.3,3h-6a13.22,13.22,0,0,1-.3-3,12.62,12.62,0,0,1,.3-3,13.22,13.22,0,0,1-.3-3,12.62,12.62,0,0,1,.3-3,13.22,13.22,0,0,1-.3-3,12.62,12.62,0,0,1,.3-3,13.22,13.22,0,0,1-.3-3,12.62,12.62,0,0,1,.3-3,13.22,13.22,0,0,1-.3-3,12.62,12.62,0,0,1,.3-3,13.22,13.22,0,0,1-.3-3,12.62,12.62,0,0,1,.3-3,13.22,13.22,0,0,1-.3-3,12.62,12.62,0,0,1,.3-3h21a13.17,13.17,0,0,1,.3,3,13.82,13.82,0,0,1-.3,3h3a13.17,13.17,0,0,1,.3,3A13.82,13.82,0,0,1,50.6,31Zm-6.3,3a12.62,12.62,0,0,1,.3-3,13.22,13.22,0,0,1-.3-3,12.62,12.62,0,0,1,.3-3h-12a13.17,13.17,0,0,1,.3,3,13.82,13.82,0,0,1-.3,3,13.17,13.17,0,0,1,.3,3,13.82,13.82,0,0,1-.3,3h12A13.22,13.22,0,0,1,44.3,34Z" transform="translate(-0.5 -6.2)"/></g><g class="cls-3"><path class="cls-5" d="M105.37,69.36v2.91H96.3V69.36h2.19V58H96.3V55.06h9.07a7.3,7.3,0,0,1,4.9,1.49,5,5,0,0,1,1.72,4,5.52,5.52,0,0,1-.61,2.61,4.63,4.63,0,0,1-1.55,1.79,5.72,5.72,0,0,1-2.16.85,16.26,16.26,0,0,1-3,.23H103v3.34ZM103,63.15h.67c1.53,0,2.52-.25,3-.75a2.69,2.69,0,0,0,.67-1.86,2.79,2.79,0,0,0-.46-1.6,2,2,0,0,0-1-.82,8.94,8.94,0,0,0-2-.15H103Z" transform="translate(-0.5 -6.2)"/><path class="cls-5" d="M122.37,68.66l3,1a6.41,6.41,0,0,1-5.84,2.93,6.89,6.89,0,0,1-4.94-1.67,5.75,5.75,0,0,1-1.78-4.39,6.29,6.29,0,0,1,6.5-6.48,6,6,0,0,1,3.55,1,5.44,5.44,0,0,1,2.08,2.58,9.7,9.7,0,0,1,.58,3.46h-8.92a2.86,2.86,0,0,0,1,2.31,3.4,3.4,0,0,0,2,.68A4,4,0,0,0,122.37,68.66ZM121.64,65a3.07,3.07,0,0,0-.78-1.71,2.32,2.32,0,0,0-1.78-.71c-1.4,0-2.22.81-2.45,2.42Z" transform="translate(-0.5 -6.2)"/><path class="cls-5" d="M135.45,69.51v2.76H127V69.51h2.22V63.05h-2.08V60.29h5.58v3.05a4.17,4.17,0,0,1,1.47-2.27,4.06,4.06,0,0,1,2.7-1h.62v3.61a7.15,7.15,0,0,0-2.37.33,2.75,2.75,0,0,0-1.5,1.41,5.22,5.22,0,0,0-.6,2.57v1.47Z" transform="translate(-0.5 -6.2)"/><path class="cls-5" d="M145.93,69.51v2.76h-7.44V69.51h1.73V63.05h-1.6V60.29h1.6v-1.1a4.95,4.95,0,0,1,8.65-2.74l-2.77,2.16c-.25-.86-.6-1.28-1.06-1.28q-1,0-1,1.65v1.31h1.88v2.76h-1.88v6.46Z" transform="translate(-0.5 -6.2)"/><path class="cls-5" d="M157.22,68.66l3,1a6.41,6.41,0,0,1-5.84,2.93,6.89,6.89,0,0,1-4.94-1.67,5.74,5.74,0,0,1-1.77-4.39A6.29,6.29,0,0,1,154.13,60a6,6,0,0,1,3.55,1,5.44,5.44,0,0,1,2.08,2.58,9.7,9.7,0,0,1,.58,3.46h-8.92a2.84,2.84,0,0,0,1,2.31,3.37,3.37,0,0,0,2,.68A4,4,0,0,0,157.22,68.66ZM156.49,65a3,3,0,0,0-.78-1.71,2.3,2.3,0,0,0-1.78-.71c-1.4,0-2.22.81-2.45,2.42Z" transform="translate(-0.5 -6.2)"/><path class="cls-5" d="M174.47,60.29v4.87h-2.72a3.06,3.06,0,0,0-2.91-2,2.56,2.56,0,0,0-2,.84,3.2,3.2,0,0,0-.75,2.23,3.47,3.47,0,0,0,.8,2.51,2.59,2.59,0,0,0,1.94.81,3.16,3.16,0,0,0,1.73-.53,4,4,0,0,0,1.31-1.39l3,1.3A5.88,5.88,0,0,1,169,72.54a7.15,7.15,0,0,1-5-1.7,5.9,5.9,0,0,1-1.86-4.57A5.78,5.78,0,0,1,164,61.76a6.23,6.23,0,0,1,7.87-.47v-1Z" transform="translate(-0.5 -6.2)"/><path class="cls-5" d="M175.94,63.05V60.29h1.53V58.41l3.82-2.74v4.62h2.2v2.76h-2.2v5.2a1.73,1.73,0,0,0,.18,1c.12.16.39.24.82.24a3.39,3.39,0,0,0,1.2-.25v2.65a7.59,7.59,0,0,1-2.88.6c-2.1,0-3.14-1-3.14-3.12V63.05Z" transform="translate(-0.5 -6.2)"/></g><g class="cls-3"><path class="cls-4" d="M107.5,37.29a5.86,5.86,0,0,1,.13,1.3,6,6,0,0,1-.13,1.29h-1.3a5.32,5.32,0,0,1,.13,1.3,5.51,5.51,0,0,1-.13,1.29H99.73a5.29,5.29,0,0,1,.13,1.29,5.54,5.54,0,0,1-.13,1.3,5.18,5.18,0,0,1,.13,1.29,5.54,5.54,0,0,1-.13,1.3,5.18,5.18,0,0,1,.13,1.29,5.54,5.54,0,0,1-.13,1.3H97.14a6.19,6.19,0,0,1-.12-1.3,5.77,5.77,0,0,1,.12-1.29,6.19,6.19,0,0,1-.12-1.3,5.77,5.77,0,0,1,.12-1.29,6.19,6.19,0,0,1-.12-1.3,5.89,5.89,0,0,1,.12-1.29A6.16,6.16,0,0,1,97,41.18a5.93,5.93,0,0,1,.12-1.3A6.09,6.09,0,0,1,97,38.59a5.93,5.93,0,0,1,.12-1.3A6,6,0,0,1,97,36a5.77,5.77,0,0,1,.12-1.29,6.19,6.19,0,0,1-.12-1.3,5.77,5.77,0,0,1,.12-1.29h9.06a5.18,5.18,0,0,1,.13,1.29,5.54,5.54,0,0,1-.13,1.3h1.3a5.7,5.7,0,0,1,.13,1.29A6,6,0,0,1,107.5,37.29Zm-2.72,1.3a5.32,5.32,0,0,1,.13-1.3,5.4,5.4,0,0,1-.13-1.29,5.18,5.18,0,0,1,.13-1.29H99.73A5.18,5.18,0,0,1,99.86,36a5.4,5.4,0,0,1-.13,1.29,5.32,5.32,0,0,1,.13,1.3,5.46,5.46,0,0,1-.13,1.29h5.18A5.46,5.46,0,0,1,104.78,38.59Z" transform="translate(-0.5 -6.2)"/><path class="cls-4" d="M117.3,48.94a5.54,5.54,0,0,1-.13,1.3h-7.76a5.54,5.54,0,0,1-.13-1.3,5.18,5.18,0,0,1,.13-1.29H112a6.19,6.19,0,0,1-.12-1.3,5.77,5.77,0,0,1,.12-1.29,6.19,6.19,0,0,1-.12-1.3,5.89,5.89,0,0,1,.12-1.29,6.16,6.16,0,0,1-.12-1.29,5.93,5.93,0,0,1,.12-1.3h-1.94a6,6,0,0,1-.13-1.29,5.86,5.86,0,0,1,.13-1.3h4.53a5.32,5.32,0,0,1,.13,1.3,5.46,5.46,0,0,1-.13,1.29,5.32,5.32,0,0,1,.13,1.3,5.51,5.51,0,0,1-.13,1.29,5.29,5.29,0,0,1,.13,1.29,5.54,5.54,0,0,1-.13,1.3,5.18,5.18,0,0,1,.13,1.29,5.54,5.54,0,0,1-.13,1.3h2.59A5.18,5.18,0,0,1,117.3,48.94ZM112,34.71a6.19,6.19,0,0,1-.12-1.3,5.77,5.77,0,0,1,.12-1.29h2.59a5.18,5.18,0,0,1,.13,1.29,5.54,5.54,0,0,1-.13,1.3Z" transform="translate(-0.5 -6.2)"/><path class="cls-4" d="M128.79,47.65a5.77,5.77,0,0,1,.12,1.29,6.19,6.19,0,0,1-.12,1.3H126.2a5.54,5.54,0,0,1-.13-1.3,5.18,5.18,0,0,1,.13-1.29h-1a5.54,5.54,0,0,1-.13-1.3,5.18,5.18,0,0,1,.13-1.29h-1.62a5.7,5.7,0,0,1,.13,1.29,6.14,6.14,0,0,1-.13,1.3h-1.3a5.18,5.18,0,0,1,.13,1.29,5.54,5.54,0,0,1-.13,1.3h-2.58a5.54,5.54,0,0,1-.13-1.3,5.18,5.18,0,0,1,.13-1.29H121a5.54,5.54,0,0,1-.13-1.3,5.18,5.18,0,0,1,.13-1.29h1.29a6.19,6.19,0,0,1-.12-1.3,5.89,5.89,0,0,1,.12-1.29H121a5.51,5.51,0,0,1-.13-1.29,5.32,5.32,0,0,1,.13-1.3h-1.29a5.46,5.46,0,0,1-.13-1.29,5.32,5.32,0,0,1,.13-1.3h2.58a5.32,5.32,0,0,1,.13,1.3,5.46,5.46,0,0,1-.13,1.29h1.3a5.86,5.86,0,0,1,.13,1.3,6.11,6.11,0,0,1-.13,1.29h1.62a5.51,5.51,0,0,1-.13-1.29,5.32,5.32,0,0,1,.13-1.3h1a5.46,5.46,0,0,1-.13-1.29,5.32,5.32,0,0,1,.13-1.3h2.59a5.93,5.93,0,0,1,.12,1.3,6.09,6.09,0,0,1-.12,1.29h-1a5.32,5.32,0,0,1,.13,1.3,5.51,5.51,0,0,1-.13,1.29H126.2a5.83,5.83,0,0,1,.13,1.29,6.14,6.14,0,0,1-.13,1.3h1.61a5.18,5.18,0,0,1,.13,1.29,5.54,5.54,0,0,1-.13,1.3Z" transform="translate(-0.5 -6.2)"/><path class="cls-4" d="M140.4,42.47a5.29,5.29,0,0,1,.13,1.29,5.54,5.54,0,0,1-.13,1.3h-6.79a5.77,5.77,0,0,1,.12,1.29,6.19,6.19,0,0,1-.12,1.3h5.5a5.77,5.77,0,0,1,.12,1.29,6.19,6.19,0,0,1-.12,1.3h-6.48a6.19,6.19,0,0,1-.12-1.3,5.77,5.77,0,0,1,.12-1.29H131a5.54,5.54,0,0,1-.13-1.3,5.18,5.18,0,0,1,.13-1.29h-1a5.54,5.54,0,0,1-.13-1.3,5.29,5.29,0,0,1,.13-1.29h1a5.51,5.51,0,0,1-.13-1.29,5.32,5.32,0,0,1,.13-1.3h1.61a6.09,6.09,0,0,1-.12-1.29,5.93,5.93,0,0,1,.12-1.3h6.48a5.93,5.93,0,0,1,.12,1.3,6.09,6.09,0,0,1-.12,1.29h1.29a5.32,5.32,0,0,1,.13,1.3A5.51,5.51,0,0,1,140.4,42.47Zm-2.72-1.29a5.32,5.32,0,0,1,.13-1.3h-4.2a5.93,5.93,0,0,1,.12,1.3,6.16,6.16,0,0,1-.12,1.29h4.2A5.51,5.51,0,0,1,137.68,41.18Z" transform="translate(-0.5 -6.2)"/><path class="cls-4" d="M150.2,48.94a5.54,5.54,0,0,1-.13,1.3h-7.76a5.54,5.54,0,0,1-.13-1.3,5.18,5.18,0,0,1,.13-1.29h2.59a5.54,5.54,0,0,1-.13-1.3,5.18,5.18,0,0,1,.13-1.29,5.54,5.54,0,0,1-.13-1.3,5.29,5.29,0,0,1,.13-1.29,5.51,5.51,0,0,1-.13-1.29,5.32,5.32,0,0,1,.13-1.3,5.46,5.46,0,0,1-.13-1.29,5.32,5.32,0,0,1,.13-1.3,5.4,5.4,0,0,1-.13-1.29,5.18,5.18,0,0,1,.13-1.29H143a5.54,5.54,0,0,1-.13-1.3,5.18,5.18,0,0,1,.13-1.29h4.52a5.18,5.18,0,0,1,.13,1.29,5.54,5.54,0,0,1-.13,1.3,5.18,5.18,0,0,1,.13,1.29,5.4,5.4,0,0,1-.13,1.29,5.32,5.32,0,0,1,.13,1.3,5.46,5.46,0,0,1-.13,1.29,5.32,5.32,0,0,1,.13,1.3,5.51,5.51,0,0,1-.13,1.29,5.29,5.29,0,0,1,.13,1.29,5.54,5.54,0,0,1-.13,1.3,5.18,5.18,0,0,1,.13,1.29,5.54,5.54,0,0,1-.13,1.3h2.59A5.18,5.18,0,0,1,150.2,48.94Z" transform="translate(-0.5 -6.2)"/></g><g class="cls-3"><path class="cls-6" d="M107.5,37.29a5.86,5.86,0,0,1,.13,1.3,6,6,0,0,1-.13,1.29h-1.3a5.32,5.32,0,0,1,.13,1.3,5.51,5.51,0,0,1-.13,1.29H99.73a5.29,5.29,0,0,1,.13,1.29,5.54,5.54,0,0,1-.13,1.3,5.18,5.18,0,0,1,.13,1.29,5.54,5.54,0,0,1-.13,1.3,5.18,5.18,0,0,1,.13,1.29,5.54,5.54,0,0,1-.13,1.3H97.14a6.19,6.19,0,0,1-.12-1.3,5.77,5.77,0,0,1,.12-1.29,6.19,6.19,0,0,1-.12-1.3,5.77,5.77,0,0,1,.12-1.29,6.19,6.19,0,0,1-.12-1.3,5.89,5.89,0,0,1,.12-1.29A6.16,6.16,0,0,1,97,41.18a5.93,5.93,0,0,1,.12-1.3A6.09,6.09,0,0,1,97,38.59a5.93,5.93,0,0,1,.12-1.3A6,6,0,0,1,97,36a5.77,5.77,0,0,1,.12-1.29,6.19,6.19,0,0,1-.12-1.3,5.77,5.77,0,0,1,.12-1.29h9.06a5.18,5.18,0,0,1,.13,1.29,5.54,5.54,0,0,1-.13,1.3h1.3a5.7,5.7,0,0,1,.13,1.29A6,6,0,0,1,107.5,37.29Zm-2.72,1.3a5.32,5.32,0,0,1,.13-1.3,5.4,5.4,0,0,1-.13-1.29,5.18,5.18,0,0,1,.13-1.29H99.73A5.18,5.18,0,0,1,99.86,36a5.4,5.4,0,0,1-.13,1.29,5.32,5.32,0,0,1,.13,1.3,5.46,5.46,0,0,1-.13,1.29h5.18A5.46,5.46,0,0,1,104.78,38.59Z" transform="translate(-0.5 -6.2)"/><path class="cls-6" d="M117.3,48.94a5.54,5.54,0,0,1-.13,1.3h-7.76a5.54,5.54,0,0,1-.13-1.3,5.18,5.18,0,0,1,.13-1.29H112a6.19,6.19,0,0,1-.12-1.3,5.77,5.77,0,0,1,.12-1.29,6.19,6.19,0,0,1-.12-1.3,5.89,5.89,0,0,1,.12-1.29,6.16,6.16,0,0,1-.12-1.29,5.93,5.93,0,0,1,.12-1.3h-1.94a6,6,0,0,1-.13-1.29,5.86,5.86,0,0,1,.13-1.3h4.53a5.32,5.32,0,0,1,.13,1.3,5.46,5.46,0,0,1-.13,1.29,5.32,5.32,0,0,1,.13,1.3,5.51,5.51,0,0,1-.13,1.29,5.29,5.29,0,0,1,.13,1.29,5.54,5.54,0,0,1-.13,1.3,5.18,5.18,0,0,1,.13,1.29,5.54,5.54,0,0,1-.13,1.3h2.59A5.18,5.18,0,0,1,117.3,48.94ZM112,34.71a6.19,6.19,0,0,1-.12-1.3,5.77,5.77,0,0,1,.12-1.29h2.59a5.18,5.18,0,0,1,.13,1.29,5.54,5.54,0,0,1-.13,1.3Z" transform="translate(-0.5 -6.2)"/><path class="cls-6" d="M128.79,47.65a5.77,5.77,0,0,1,.12,1.29,6.19,6.19,0,0,1-.12,1.3H126.2a5.54,5.54,0,0,1-.13-1.3,5.18,5.18,0,0,1,.13-1.29h-1a5.54,5.54,0,0,1-.13-1.3,5.18,5.18,0,0,1,.13-1.29h-1.62a5.7,5.7,0,0,1,.13,1.29,6.14,6.14,0,0,1-.13,1.3h-1.3a5.18,5.18,0,0,1,.13,1.29,5.54,5.54,0,0,1-.13,1.3h-2.58a5.54,5.54,0,0,1-.13-1.3,5.18,5.18,0,0,1,.13-1.29H121a5.54,5.54,0,0,1-.13-1.3,5.18,5.18,0,0,1,.13-1.29h1.29a6.19,6.19,0,0,1-.12-1.3,5.89,5.89,0,0,1,.12-1.29H121a5.51,5.51,0,0,1-.13-1.29,5.32,5.32,0,0,1,.13-1.3h-1.29a5.46,5.46,0,0,1-.13-1.29,5.32,5.32,0,0,1,.13-1.3h2.58a5.32,5.32,0,0,1,.13,1.3,5.46,5.46,0,0,1-.13,1.29h1.3a5.86,5.86,0,0,1,.13,1.3,6.11,6.11,0,0,1-.13,1.29h1.62a5.51,5.51,0,0,1-.13-1.29,5.32,5.32,0,0,1,.13-1.3h1a5.46,5.46,0,0,1-.13-1.29,5.32,5.32,0,0,1,.13-1.3h2.59a5.93,5.93,0,0,1,.12,1.3,6.09,6.09,0,0,1-.12,1.29h-1a5.32,5.32,0,0,1,.13,1.3,5.51,5.51,0,0,1-.13,1.29H126.2a5.83,5.83,0,0,1,.13,1.29,6.14,6.14,0,0,1-.13,1.3h1.61a5.18,5.18,0,0,1,.13,1.29,5.54,5.54,0,0,1-.13,1.3Z" transform="translate(-0.5 -6.2)"/><path class="cls-6" d="M140.4,42.47a5.29,5.29,0,0,1,.13,1.29,5.54,5.54,0,0,1-.13,1.3h-6.79a5.77,5.77,0,0,1,.12,1.29,6.19,6.19,0,0,1-.12,1.3h5.5a5.77,5.77,0,0,1,.12,1.29,6.19,6.19,0,0,1-.12,1.3h-6.48a6.19,6.19,0,0,1-.12-1.3,5.77,5.77,0,0,1,.12-1.29H131a5.54,5.54,0,0,1-.13-1.3,5.18,5.18,0,0,1,.13-1.29h-1a5.54,5.54,0,0,1-.13-1.3,5.29,5.29,0,0,1,.13-1.29h1a5.51,5.51,0,0,1-.13-1.29,5.32,5.32,0,0,1,.13-1.3h1.61a6.09,6.09,0,0,1-.12-1.29,5.93,5.93,0,0,1,.12-1.3h6.48a5.93,5.93,0,0,1,.12,1.3,6.09,6.09,0,0,1-.12,1.29h1.29a5.32,5.32,0,0,1,.13,1.3A5.51,5.51,0,0,1,140.4,42.47Zm-2.72-1.29a5.32,5.32,0,0,1,.13-1.3h-4.2a5.93,5.93,0,0,1,.12,1.3,6.16,6.16,0,0,1-.12,1.29h4.2A5.51,5.51,0,0,1,137.68,41.18Z" transform="translate(-0.5 -6.2)"/><path class="cls-6" d="M150.2,48.94a5.54,5.54,0,0,1-.13,1.3h-7.76a5.54,5.54,0,0,1-.13-1.3,5.18,5.18,0,0,1,.13-1.29h2.59a5.54,5.54,0,0,1-.13-1.3,5.18,5.18,0,0,1,.13-1.29,5.54,5.54,0,0,1-.13-1.3,5.29,5.29,0,0,1,.13-1.29,5.51,5.51,0,0,1-.13-1.29,5.32,5.32,0,0,1,.13-1.3,5.46,5.46,0,0,1-.13-1.29,5.32,5.32,0,0,1,.13-1.3,5.4,5.4,0,0,1-.13-1.29,5.18,5.18,0,0,1,.13-1.29H143a5.54,5.54,0,0,1-.13-1.3,5.18,5.18,0,0,1,.13-1.29h4.52a5.18,5.18,0,0,1,.13,1.29,5.54,5.54,0,0,1-.13,1.3,5.18,5.18,0,0,1,.13,1.29,5.4,5.4,0,0,1-.13,1.29,5.32,5.32,0,0,1,.13,1.3,5.46,5.46,0,0,1-.13,1.29,5.32,5.32,0,0,1,.13,1.3,5.51,5.51,0,0,1-.13,1.29,5.29,5.29,0,0,1,.13,1.29,5.54,5.54,0,0,1-.13,1.3,5.18,5.18,0,0,1,.13,1.29,5.54,5.54,0,0,1-.13,1.3h2.59A5.18,5.18,0,0,1,150.2,48.94Z" transform="translate(-0.5 -6.2)"/></g></g></svg>