<svg id="playstation" xmlns="http://www.w3.org/2000/svg" width="177.53" height="115.49" viewBox="0 0 177.53 115.49"><defs><style>.cls-1{fill:#474341;}.cls-2{fill:#bcada7;}.cls-3{fill:#ccc0bc;}.cls-4{fill:#dbd1ce;}.cls-5{fill:#6ad35b;}.cls-6{fill:#ff76ce;}.cls-7{fill:#f94646;}.cls-8{fill:#4074f4;}</style></defs><title>playstation controller</title><g id="controller"><g id="back_buttons_on_top" data-name="back buttons on top"><rect class="cls-1" x="31.19" y="0.03" width="21.97" height="7.24" rx="0.46" ry="0.46"/><rect class="cls-1" x="125.22" width="21.97" height="7.24" rx="0.46" ry="0.46"/></g><g id="body_dark_gray" data-name="body dark gray"><ellipse class="cls-2" cx="164.06" cy="72.05" rx="23.18" ry="52.21" transform="translate(-23.38 28.88) rotate(-12.34)"/><ellipse class="cls-2" cx="37.01" cy="72.08" rx="52.21" ry="23.18" transform="translate(-53.08 85.04) rotate(-77.69)"/><circle class="cls-2" cx="42.95" cy="43.33" r="33.34"/><circle class="cls-2" cx="134.56" cy="43.31" r="33.34"/><rect class="cls-2" x="52.6" y="22.76" width="94.59" height="45.34"/><path class="cls-2" d="M65.06,30.38H37.46c-1.63,0-3.33-.26-3.33-1.93l5-15a3,3,0,0,1,3-3H65.05a3,3,0,0,1,3,3l4,15.19C72,30.3,68.83,31,65.06,30.38Z" transform="translate(-11.78 -7.84)"/><path class="cls-2" d="M159.39,30.35h-27.6c-1.62,0-3.32-.27-3.32-1.94l5-15a3,3,0,0,1,2.95-3h22.95a3,3,0,0,1,3,3l4,15.19C166.37,30.28,163.16,31,159.39,30.35Z" transform="translate(-11.78 -7.84)"/></g><ellipse id="left_light_circle" data-name="left light circle" class="cls-3" cx="42.95" cy="43.33" rx="31.81" ry="32.58"/><circle id="light_gray_circle_right" data-name="light gray circle right" class="cls-3" cx="134.56" cy="43.31" r="32.58"/><rect id="light_gray_background_square" data-name="light gray background square" class="cls-3" x="55.44" y="22.59" width="77.02" height="41.46" rx="1" ry="1"/><g id="right_light_gray_plus" data-name="right light gray plus"><rect class="cls-4" x="33.31" y="20.01" width="17.57" height="48.1"/><rect class="cls-4" x="44.3" y="28.42" width="17.57" height="48.1" transform="translate(93.77 -8.47) rotate(89.98)"/></g><g id="left_plus_light_gray" data-name="left plus light gray"><rect class="cls-4" x="126.44" y="19.99" width="17.57" height="48.1"/><rect class="cls-4" x="137.43" y="28.4" width="17.57" height="48.1" transform="translate(186.85 -101.63) rotate(89.98)"/></g><g id="top_button_arrow" data-name="top button arrow"><path class="cls-1" d="M56.64,44.6H51.27c-2.22,0-4.4-1.45-4.05-4.05V35.19a4.06,4.06,0,0,1,4.05-4h5.36a4.06,4.06,0,0,1,4,4v5.36A4.06,4.06,0,0,1,56.64,44.6Z" transform="translate(-11.78 -7.84)"/><path class="cls-1" d="M60.29,42.63,56.5,46.49c-2.23,1.69-3.58,1.19-5,.09l-2.19-2c-2.07-2.5-2.07-2.29-.37-4.1l2.89-3.81a3.31,3.31,0,0,1,4.62-.63l1.93,1.46C59.8,38.62,61.39,41.18,60.29,42.63Z" transform="translate(-11.78 -7.84)"/></g><g id="bottom_button_arrow" data-name="bottom button arrow"><path class="cls-1" d="M56.64,58.42H51.28c-2.23,0-4.41,1.45-4.05,4v5.36a4.06,4.06,0,0,0,4.05,4h5.37a4.06,4.06,0,0,0,4-4V62.47A4.06,4.06,0,0,0,56.64,58.42Z" transform="translate(-11.78 -7.84)"/><path class="cls-1" d="M60.29,60.39,56.5,56.52c-2.23-1.68-3.57-1.18-5-.08l-2.18,2c-2.08,2.5-2.07,2.29-.37,4.1l2.89,3.81a3.31,3.31,0,0,0,4.62.63l1.93-1.47C59.81,64.39,61.39,61.83,60.29,60.39Z" transform="translate(-11.78 -7.84)"/></g><g id="left_button_arrow" data-name="left button arrow"><path class="cls-1" d="M45,55l.08-5.36c0-2.23-1.39-4.43-4-4.11l-5.36-.08a4.06,4.06,0,0,0-4.11,4l-.08,5.36a4.07,4.07,0,0,0,4,4.11L40.9,59A4.06,4.06,0,0,0,45,55Z" transform="translate(-11.78 -7.84)"/><path class="cls-1" d="M43,58.6l3.92-3.73c1.71-2.21,1.23-3.56.16-5l-2-2.22c-2.47-2.1-2.26-2.1-4.1-.43L37.16,50a3.3,3.3,0,0,0-.69,4.61l1.43,2C39,58.06,41.52,59.68,43,58.6Z" transform="translate(-11.78 -7.84)"/></g><g id="right_button_arrow" data-name="right button arrow"><path class="cls-1" d="M62.07,55,62,49.61c0-2.23,1.39-4.43,4-4.11l5.36-.08a4.06,4.06,0,0,1,4.11,4l.08,5.36a4.05,4.05,0,0,1-4,4.11L66.18,59A4.06,4.06,0,0,1,62.07,55Z" transform="translate(-11.78 -7.84)"/><path class="cls-1" d="M64.1,58.6l-3.92-3.74c-1.72-2.2-1.24-3.55-.16-5L62,47.63c2.47-2.11,2.27-2.1,4.1-.43L69.91,50a3.3,3.3,0,0,1,.7,4.61l-1.44,2C68.1,58.05,65.56,59.67,64.1,58.6Z" transform="translate(-11.78 -7.84)"/></g><circle id="triangle_button_balck" data-name="triangle button balck" class="cls-1" cx="135.43" cy="30.8" r="6.78"/><ellipse id="X_button_black" data-name="X button black" class="cls-1" cx="135.43" cy="57.4" rx="6.9" ry="6.66"/><circle id="square_button_black" data-name="square button black" class="cls-1" cx="119.78" cy="44.84" r="6.78"/><circle id="circle_button_black" data-name="circle button black" class="cls-1" cx="149.11" cy="44.62" r="6.78"/><polygon class="cls-5" points="141.11 33.78 135.65 33.77 130.18 33.77 132.92 29.26 135.65 24.75 138.38 29.26 141.11 33.78"/><polygon class="cls-1" points="138.9 32.68 135.65 32.68 132.39 32.68 134.02 29.63 135.65 26.57 137.28 29.63 138.9 32.68"/><rect class="cls-6" x="114.92" y="40.7" width="9.71" height="8.29"/><rect class="cls-1" x="115.85" y="41.49" width="7.86" height="6.7"/><g id="circle_button_" data-name="circle button&gt;"><ellipse class="cls-7" cx="149.15" cy="44.62" rx="6.12" ry="5.77"/><ellipse class="cls-1" cx="149.11" cy="44.6" rx="4.7" ry="4.43"/></g><g id="X_button" data-name="X button"><rect class="cls-8" x="146.61" y="59.52" width="1.21" height="11.44" transform="translate(77.43 -92.81) rotate(44.98)"/><rect class="cls-8" x="146.61" y="59.52" width="1.21" height="11.44" transform="translate(-10.49 125.46) rotate(-48.91)"/></g><rect id="start_button" data-name="start button" class="cls-1" x="73.29" y="49.83" width="12.66" height="3.89"/><polygon id="pause_button" data-name="pause button" class="cls-1" points="94.07 54.75 94.04 51.77 94.02 48.8 98.18 50.25 102.33 51.7 98.2 53.23 94.07 54.75"/><path class="cls-1" d="M91.7,39.06c-.16-.63-.47-1.27-1.32-1.27a1,1,0,0,0-1,1c0,.69.46,1,1.22,1.41s1.65.83,1.65,1.91A1.92,1.92,0,0,1,90.12,44a5,5,0,0,1-1.48-.29c-.07-.24-.19-1-.26-1.48l.3-.08c.16.6.58,1.5,1.57,1.5a1.06,1.06,0,0,0,1.15-1.14c0-.72-.5-1-1.24-1.44s-1.58-.81-1.58-1.9a1.72,1.72,0,0,1,2-1.68,8.78,8.78,0,0,1,1.31.16c0,.35.08.76.16,1.38Z" transform="translate(-11.78 -7.84)"/><path class="cls-1" d="M96.48,37.46a3.08,3.08,0,0,1,3.11,3.16,3.18,3.18,0,1,1-6.35.15A3.18,3.18,0,0,1,96.48,37.46Zm-.19.35c-1.08,0-2.06.9-2.06,2.7s1,3.1,2.35,3.1c1.16,0,2-.87,2-2.72C98.61,38.88,97.54,37.81,96.29,37.81Z" transform="translate(-11.78 -7.84)"/><path class="cls-1" d="M107.15,37.86c-.61.06-.82.16-.84.6s0,.71,0,1.6v3.85h-.37l-4.11-5v2.4c0,.87,0,1.3,0,1.58,0,.49.26.63,1,.69v.27h-2.33v-.27c.6-.05.83-.19.87-.66,0-.31,0-.74,0-1.62V38.84a.86.86,0,0,0-.19-.64c-.18-.24-.38-.29-.85-.34v-.27h1.44l4.07,4.83V40.06a15.9,15.9,0,0,0,0-1.59c0-.43-.25-.57-1-.61v-.27h2.37Z" transform="translate(-11.78 -7.84)"/><path class="cls-1" d="M113.5,37.85c-.68.08-.79.19-1.17.8s-.79,1.36-1.26,2.22a1,1,0,0,0-.15.57v1.18c0,.79.09.85,1,.94v.26h-2.75v-.27c.87-.12.94-.14.94-.94V41.38a1,1,0,0,0-.19-.56c-.34-.62-.67-1.23-1.18-2.13-.38-.65-.47-.77-1.13-.83v-.27H110v.26c-.69.1-.65.23-.48.55.41.74.86,1.6,1.26,2.32.35-.64.89-1.68,1.16-2.21s.19-.58-.56-.66v-.26h2.17Z" transform="translate(-11.78 -7.84)"/><path class="cls-1" d="M91.7,39.06c-.16-.63-.47-1.27-1.32-1.27a1,1,0,0,0-1,1c0,.69.46,1,1.22,1.41s1.65.83,1.65,1.91A1.92,1.92,0,0,1,90.12,44a5,5,0,0,1-1.48-.29c-.07-.24-.19-1-.26-1.48l.3-.08c.16.6.58,1.5,1.57,1.5a1.06,1.06,0,0,0,1.15-1.14c0-.72-.5-1-1.24-1.44s-1.58-.81-1.58-1.9a1.72,1.72,0,0,1,2-1.68,8.78,8.78,0,0,1,1.31.16c0,.35.08.76.16,1.38Z" transform="translate(-11.78 -7.84)"/><path class="cls-1" d="M96.48,37.46a3.08,3.08,0,0,1,3.11,3.16,3.18,3.18,0,1,1-6.35.15A3.18,3.18,0,0,1,96.48,37.46Zm-.19.35c-1.08,0-2.06.9-2.06,2.7s1,3.1,2.35,3.1c1.16,0,2-.87,2-2.72C98.61,38.88,97.54,37.81,96.29,37.81Z" transform="translate(-11.78 -7.84)"/><path class="cls-1" d="M107.15,37.86c-.61.06-.82.16-.84.6s0,.71,0,1.6v3.85h-.37l-4.11-5v2.4c0,.87,0,1.3,0,1.58,0,.49.26.63,1,.69v.27h-2.33v-.27c.6-.05.83-.19.87-.66,0-.31,0-.74,0-1.62V38.84a.86.86,0,0,0-.19-.64c-.18-.24-.38-.29-.85-.34v-.27h1.44l4.07,4.83V40.06a15.9,15.9,0,0,0,0-1.59c0-.43-.25-.57-1-.61v-.27h2.37Z" transform="translate(-11.78 -7.84)"/><path class="cls-1" d="M113.5,37.85c-.68.08-.79.19-1.17.8s-.79,1.36-1.26,2.22a1,1,0,0,0-.15.57v1.18c0,.79.09.85,1,.94v.26h-2.75v-.27c.87-.12.94-.14.94-.94V41.38a1,1,0,0,0-.19-.56c-.34-.62-.67-1.23-1.18-2.13-.38-.65-.47-.77-1.13-.83v-.27H110v.26c-.69.1-.65.23-.48.55.41.74.86,1.6,1.26,2.32.35-.64.89-1.68,1.16-2.21s.19-.58-.56-.66v-.26h2.17Z" transform="translate(-11.78 -7.84)"/></g></svg>