<svg id="switch" xmlns="http://www.w3.org/2000/svg" xmlns:xlink="http://www.w3.org/1999/xlink" width="194.57" height="88.44" viewBox="0 0 194.57 88.44"><defs><style>.cls-1{fill:none;}.cls-2{fill:#3d3b39;}.cls-3{fill:#474341;}.cls-4{fill:#353332;}.cls-5{clip-path:url(#clip-path);}.cls-6{fill:#e84955;}.cls-7{clip-path:url(#clip-path-2);}.cls-8{fill:#5097dd;}</style><clipPath id="clip-path" transform="translate(-2.4 -25.73)"><rect class="cls-1" x="0.32" y="18.68" width="33.67" height="110.36" transform="translate(0.44 -0.1) rotate(0.34)"/></clipPath><clipPath id="clip-path-2" transform="translate(-2.4 -25.73)"><rect class="cls-1" x="172.17" y="16.34" width="29.65" height="112.58" transform="translate(373.55 146.36) rotate(-179.66)"/></clipPath></defs><title>switch</title><rect id="left_trigger" data-name="left trigger" class="cls-2" x="5.25" y="26.25" width="53.43" height="47.3" rx="3.69" ry="3.69" transform="translate(-2.1 -25.92) rotate(0.34)"/><rect id="right_trigger" data-name="right trigger" class="cls-2" x="144.57" y="27.06" width="50.65" height="47.3" rx="3.69" ry="3.69" transform="translate(-2.09 -26.73) rotate(0.34)"/><path id="outter_middle_rectangle" data-name="outter middle rectangle" class="cls-3" d="M176,113.81,24.27,113c15.43-25.3-17.72-5.13-17.7-8.85L4.28,32.85a6.78,6.78,0,0,1,6.8-6.72l177.52,1c3.72,0,9.11,3.54,8.28,8.38L188,106.14C188,109.86,179.71,113.83,176,113.81Z" transform="translate(-2.4 -25.73)"/><rect id="inner_rectangle" data-name="inner rectangle" class="cls-4" x="14.23" y="29.57" width="172.56" height="80.26" rx="6.25" ry="6.25" transform="translate(-1.98 -26.32) rotate(0.34)"/><g id="red_part" data-name="red part"><g class="cls-5"><rect class="cls-6" x="3.85" y="26.52" width="190.34" height="87.17" rx="14.07" ry="14.07" transform="translate(-1.98 -26.31) rotate(0.34)"/></g></g><g id="blue_part" data-name="blue part"><g class="cls-7"><rect class="cls-8" x="2.56" y="26.21" width="194.04" height="87.14" rx="15.1" ry="15.1" transform="translate(-1.98 -26.31) rotate(0.34)"/></g></g><ellipse id="left_move_button" data-name="left move button" class="cls-4" cx="18.58" cy="43.3" rx="5.65" ry="6.25" transform="translate(-27.22 35.89) rotate(-89.66)"/><ellipse id="right_move_button" data-name="right move button" class="cls-4" cx="183.55" cy="77.42" rx="5.65" ry="6.25" transform="translate(102.65 234.79) rotate(-89.66)"/><g id="set_left_buttons" data-name="set left buttons"><ellipse class="cls-4" cx="19.95" cy="59.56" rx="3.08" ry="3.41" transform="translate(-42.12 53.43) rotate(-89.66)"/><ellipse class="cls-4" cx="12.32" cy="67.1" rx="3.08" ry="3.41" transform="translate(-57.24 53.3) rotate(-89.66)"/><ellipse class="cls-4" cx="27.81" cy="67.19" rx="3.08" ry="3.41" transform="matrix(0.01, -1, 1, 0.01, -41.93, 68.87)"/><ellipse class="cls-4" cx="19.86" cy="74.65" rx="3.08" ry="3.41" transform="translate(-57.3 68.34) rotate(-89.66)"/></g><rect id="minus_button" data-name="minus button" class="cls-4" x="26.13" y="30.92" width="6.59" height="1.49" transform="translate(-2.21 -25.9) rotate(0.34)"/><rect class="cls-4" x="175.4" y="33.29" width="6.59" height="1.49" transform="translate(-2.19 -26.78) rotate(0.34)"/><g id="plus_button" data-name="plus button"><rect class="cls-4" x="175.4" y="33.29" width="6.59" height="1.49" transform="translate(-2.19 -26.78) rotate(0.34)"/><rect class="cls-4" x="175.72" y="33.21" width="5.96" height="1.65" transform="translate(211.39 -170.19) rotate(90.34)"/></g><rect id="square_button" data-name="square button" class="cls-4" x="20.4" y="86.71" width="7.74" height="7" transform="translate(-1.86 -25.87) rotate(0.34)"/><ellipse id="very_bottom_button_" data-name="very bottom button&apos;" class="cls-4" cx="180.06" cy="92.46" rx="3.08" ry="3.41" transform="translate(84.14 246.24) rotate(-89.66)"/><ellipse id="top_right_button" data-name="top right button" class="cls-4" cx="184.69" cy="48.58" rx="2.86" ry="3.16" transform="translate(132.62 207.25) rotate(-89.66)"/><ellipse id="right_left_button" data-name="right left button" class="cls-4" cx="177.6" cy="55.58" rx="2.86" ry="3.16" transform="translate(118.59 207.12) rotate(-89.66)"/><ellipse id="right_right_button" data-name="right right button" class="cls-4" cx="190.97" cy="55.65" rx="2.86" ry="3.16" transform="translate(131.8 220.57) rotate(-89.66)"/><ellipse id="bottum_button" data-name="bottum button" class="cls-4" cx="184.6" cy="62.59" rx="2.86" ry="3.16" transform="translate(118.53 221.09) rotate(-89.66)"/></svg>