<svg id="Xbox" xmlns="http://www.w3.org/2000/svg" width="178.08" height="114.95" viewBox="0 0 178.08 114.95"><defs><style>.cls-1{fill:#565454;}.cls-2{fill:#383838;}.cls-3{fill:#323332;}.cls-4{fill:#fffefd;}.cls-5{fill:#414441;}.cls-6{fill:#484948;}.cls-7{fill:#4f514f;}.cls-8{fill:#424442;}.cls-9{fill:#313331;}.cls-10{fill:#5aa3e0;}.cls-11{fill:#ddd35b;}.cls-12{font-size:10.9px;fill:#8cdd7f;}.cls-12,.cls-13{font-family:MyriadPro-Regular, Myriad Pro;}.cls-13{font-size:12.28px;fill:#d33737;}</style></defs><title>Xbox controller</title><g id="controller"><g id="light_gray_base" data-name="light gray base"><ellipse class="cls-1" cx="41.42" cy="63.49" rx="54.89" ry="28.21" transform="translate(-37.77 83.33) rotate(-79.46)"/><ellipse class="cls-1" cx="156.27" cy="64.24" rx="28.21" ry="54.9" transform="translate(-17.68 17.48) rotate(-9.53)"/></g><rect class="cls-1" x="38.1" y="12.58" width="117.59" height="72.43" rx="2" ry="2" transform="translate(-9.34 -8.98) rotate(-0.17)"/><g id="dark_base" data-name="dark base"><ellipse class="cls-2" cx="39.46" cy="68.74" rx="54.94" ry="28.91" transform="translate(-44.75 85.07) rotate(-78.99)"/><ellipse class="cls-2" cx="157.26" cy="69.87" rx="28.91" ry="54.94" transform="translate(-18.9 18.93) rotate(-9.94)"/><rect class="cls-2" x="36.6" y="15.46" width="120.61" height="72.43" rx="2" ry="2" transform="translate(-9.35 -8.98) rotate(-0.17)"/></g><rect id="black_square_center" data-name="black square center" class="cls-3" x="56.62" y="16.79" width="82.77" height="27.72" rx="1" ry="1" transform="matrix(1, 0, 0, 1, -9.29, -8.98)"/><g id="middle_button" data-name="middle button"><circle class="cls-4" cx="87.37" cy="21.38" r="8.4"/><path class="cls-5" d="M101.85,37a8.47,8.47,0,0,0,.89-4.43c-.43-5-5.28-8.73-10.85-8.26-.34,0-.66.12-1,.18A16.39,16.39,0,0,1,101.85,37Z" transform="translate(-9.2 -9.28)"/><path class="cls-5" d="M91,36.71a8.41,8.41,0,0,1-.58-4.48c.77-5,5.87-8.34,11.38-7.49.34.06.66.17,1,.25A16.38,16.38,0,0,0,91,36.71Z" transform="translate(-9.2 -9.28)"/></g><circle id="dpad" class="cls-6" cx="66.26" cy="58.4" r="9.25"/><circle id="Y_gray_circle" data-name="Y gray circle" class="cls-7" cx="148.22" cy="29.55" r="5.4"/><circle id="x_gray_circle" data-name="x gray circle" class="cls-7" cx="137.42" cy="40.61" r="5.4"/><circle id="B_gray_circle" data-name="B gray circle" class="cls-7" cx="158.66" cy="40.43" r="5.4"/><circle id="A_gray_circale" data-name="A gray circale" class="cls-7" cx="149.23" cy="51.36" r="5.4"/><circle class="cls-8" cx="66.41" cy="58.4" r="7.72"/><g id="right_circle_button" data-name="right circle button"><circle class="cls-7" cx="110.48" cy="58.01" r="7.72"/><circle class="cls-6" cx="110.48" cy="58.01" r="7.07"/></g><g id="left_button" data-name="left button"><circle class="cls-7" cx="30.19" cy="35.53" r="7.72"/><circle class="cls-6" cx="30.19" cy="35.53" r="7.07"/></g><rect class="cls-9" x="72.9" y="60.17" width="5.41" height="15.01" transform="translate(-9.4 -9.05) rotate(-0.17)"/><rect class="cls-9" x="72.9" y="60.17" width="5.41" height="15.01" transform="translate(133.86 -17.41) rotate(89.83)"/><rect class="cls-10" x="145.99" y="45.74" width="1.26" height="8.27" transform="translate(-14.37 71.34) rotate(-30.23)"/><rect class="cls-10" x="145.99" y="45.74" width="1.26" height="8.27" transform="matrix(0.83, 0.56, -0.56, 0.83, 44.45, -83.26)"/><rect class="cls-11" x="156.47" y="34.08" width="0.73" height="5.4" transform="translate(-13.45 28.78) rotate(-13.65)"/><rect class="cls-11" x="157.64" y="34.15" width="0.73" height="5.4" transform="translate(1.58 -40.61) rotate(11.72)"/><rect class="cls-11" x="157.06" y="38.05" width="0.73" height="5.4" transform="matrix(1, 0.02, -0.02, 1, -8.36, -12.4)"/><text class="cls-12" transform="translate(146.13 54.35) rotate(-0.17)">A</text><text class="cls-13" transform="translate(155.78 44.55) rotate(-0.17)">B</text><circle class="cls-9" cx="110.48" cy="58.01" r="6.04"/><circle class="cls-9" cx="30.26" cy="35.42" r="6.04"/></g></svg>